<svg width="20" height="20" viewBox="0 0 20 20" fill="none" xmlns="http://www.w3.org/2000/svg">
<path d="M7.143 8.57145C8.9182 8.57145 10.3573 7.13237 10.3573 5.35717C10.3573 3.58197 8.9182 2.14288 7.143 2.14288C5.3678 2.14288 3.92871 3.58197 3.92871 5.35717C3.92871 7.13237 5.3678 8.57145 7.143 8.57145Z" stroke="#000001" stroke-width="1.4" stroke-linecap="round" stroke-linejoin="round"/>
<path d="M13.5715 19.2857H0.714355V17.8572C0.714355 16.1522 1.39165 14.5171 2.59724 13.3115C3.80283 12.1059 5.43796 11.4286 7.14293 11.4286C8.84789 11.4286 10.483 12.1059 11.6886 13.3115C12.8942 14.5171 13.5715 16.1522 13.5715 17.8572V19.2857Z" stroke="#000001" stroke-width="1.4" stroke-linecap="round" stroke-linejoin="round"/>
<path d="M12.8574 2.14288C13.7099 2.14288 14.5275 2.48153 15.1303 3.08433C15.7331 3.68712 16.0717 4.50469 16.0717 5.35717C16.0717 6.20965 15.7331 7.02722 15.1303 7.63001C14.5275 8.23281 13.7099 8.57145 12.8574 8.57145" stroke="#000001" stroke-width="1.4" stroke-linecap="round" stroke-linejoin="round"/>
<path d="M15.1431 11.7C16.36 12.1629 17.4076 12.9845 18.1474 14.0559C18.8872 15.1273 19.2842 16.398 19.2859 17.7V19.2857H17.1431" stroke="#000001" stroke-width="1.4" stroke-linecap="round" stroke-linejoin="round"/>
</svg>
