<svg width="23" height="23" viewBox="0 0 23 23" fill="none" xmlns="http://www.w3.org/2000/svg">
<g clip-path="url(#clip0_399_4405)">
<path d="M3.69629 14.4078L1.87272 13.7014C1.56397 13.5823 1.29839 13.3727 1.11078 13.1C0.923169 12.8274 0.822267 12.5045 0.821289 12.1735V10.8264C0.822267 10.4955 0.923169 10.1725 1.11078 9.89991C1.29839 9.62729 1.56397 9.41768 1.87272 9.29855L3.69629 8.59212L5.07629 6.19355L4.78058 4.25497C4.73676 3.93218 4.7899 3.60365 4.93323 3.31112C5.07657 3.0186 5.30364 2.77529 5.58558 2.61212L6.73557 1.95497C7.02201 1.78658 7.35276 1.709 7.68419 1.73246C8.01563 1.75593 8.33215 1.87934 8.592 2.0864L10.1199 3.28569H12.8799L14.4077 2.05355C14.6676 1.84648 14.9841 1.72307 15.3155 1.69961C15.647 1.67614 15.9777 1.75373 16.2641 1.92212L17.4141 2.57926C17.6961 2.74243 17.9232 2.98574 18.0665 3.27827C18.2098 3.57079 18.263 3.89932 18.2191 4.22212L17.9234 6.16069L19.3034 8.55926L21.127 9.26569C21.4358 9.38483 21.7013 9.59443 21.8889 9.86706C22.0766 10.1397 22.1775 10.4626 22.1784 10.7935V12.1735C22.1775 12.5045 22.0766 12.8274 21.8889 13.1C21.7013 13.3727 21.4358 13.5823 21.127 13.7014L19.3034 14.4078L17.9234 16.8064L18.2191 18.745C18.263 19.0678 18.2098 19.3963 18.0665 19.6888C17.9232 19.9813 17.6961 20.2247 17.4141 20.3878L16.2641 21.045C15.9777 21.2134 15.647 21.2909 15.3155 21.2675C14.9841 21.244 14.6676 21.1206 14.4077 20.9135L12.8799 19.7143H10.1199L8.592 20.9464C8.33215 21.1535 8.01563 21.2769 7.68419 21.3003C7.35276 21.3238 7.02201 21.2462 6.73557 21.0778L5.58558 20.4207C5.30364 20.2575 5.07657 20.0142 4.93323 19.7217C4.7899 19.4292 4.73676 19.1006 4.78058 18.7778L5.07629 16.8393L3.69629 14.4078Z" stroke="#000001" stroke-width="1.5" stroke-linecap="round" stroke-linejoin="round"/>
<path d="M16.4284 11.4999C16.4284 8.77792 14.2218 6.57132 11.4999 6.57132C8.77789 6.57132 6.57129 8.77792 6.57129 11.4999C6.57129 14.2219 8.77789 16.4285 11.4999 16.4285C14.2218 16.4285 16.4284 14.2219 16.4284 11.4999Z" stroke="#000001" stroke-width="1.5" stroke-linecap="round" stroke-linejoin="round"/>
</g>
<defs>
<clipPath id="clip0_399_4405">
<rect width="23" height="23" fill="white" transform="matrix(0 -1 1 0 0 23)"/>
</clipPath>
</defs>
</svg>
